<?xml version="1.0" encoding="UTF-8" standalone="no"?>
<!-- Created with Inkscape (http://www.inkscape.org/) -->

<svg
   width="22.677164"
   height="31.292999"
   viewBox="0 0 5.9999996 8.2796064"
   version="1.1"
   id="svg1"
   sodipodi:docname="LoRaptorLogo.svg"
   inkscape:version="1.3.2 (091e20e, 2023-11-25)"
   inkscape:export-filename="LoRaptorLogo.png"
   inkscape:export-xdpi="4300"
   inkscape:export-ydpi="4300"
   xmlns:inkscape="http://www.inkscape.org/namespaces/inkscape"
   xmlns:sodipodi="http://sodipodi.sourceforge.net/DTD/sodipodi-0.dtd"
   xmlns="http://www.w3.org/2000/svg"
   xmlns:svg="http://www.w3.org/2000/svg">
  <sodipodi:namedview
     id="namedview1"
     pagecolor="#505050"
     bordercolor="#ffffff"
     borderopacity="1"
     inkscape:showpageshadow="0"
     inkscape:pageopacity="0"
     inkscape:pagecheckerboard="1"
     inkscape:deskcolor="#505050"
     inkscape:zoom="9.0994362"
     inkscape:cx="-1.5935053"
     inkscape:cy="9.7258773"
     inkscape:window-width="1920"
     inkscape:window-height="1006"
     inkscape:window-x="1080"
     inkscape:window-y="290"
     inkscape:window-maximized="1"
     inkscape:current-layer="svg1" />
  <defs
     id="defs1">
    <rect
       x="-35.104553"
       y="-20.869856"
       width="42.721649"
       height="30.631941"
       id="rect26" />
  </defs>
  <g
     id="layer1"
     transform="translate(-121.22675,-13.610871)">
    <g
       id="g1"
       transform="matrix(0.05010623,0,0,0.05010623,112.9277,12.894978)">
      <path
         id="path132"
         style="display:inline;fill:#f9f9f9;fill-opacity:1;stroke:none;stroke-width:0.504031;stroke-linecap:round;stroke-linejoin:bevel"
         d="m 206.78086,47.95622 c -9.84602,12.365683 -13.08229,31.402853 -6.58823,46.92737 0.25789,-7.34777 3.58027,-13.146466 8.79533,-15.601632 8.01864,-3.775052 19.6372,-1.33884 20.56722,0.145211 -6.33642,0.674957 -11.48585,-0.03736 -18.08262,4.194058 -15.14421,13.718204 0.25036,21.912853 2.48977,27.564213 l -26.70431,-2.41278 c -4.60607,5.63961 -8.26768,10.91234 -10.02574,15.44454 0.90501,6.3209 3.60025,10.4507 8.22275,12.22303 l 4.85397,0.34054 -4.1491,-3.46335 c -1.61198,-3.0423 -2.50118,-5.71632 -2.38435,-7.87808 1.39341,-3.41258 3.74476,-6.57401 6.94117,-9.51311 8.25305,3.13624 17.21006,5.89385 26.91774,8.24704 l 2.29495,-0.99167 4.20233,-1.81539 c 1.69302,-0.77901 3.24828,-1.5408 4.72426,-2.29288 l -0.13643,-0.31575 -7.74423,-19.302694 c -1.0765,-2.399003 -1.44857,-4.42123 0.48628,-5.2095 5.29108,-0.05449 12.30829,2.090311 12.30829,2.090311 0,0 -2.9635,-0.596378 -8.20467,1.135849 l 9.79475,17.974614 c 13.33797,-8.2817 14.03056,-15.08507 12.88707,-22.240505 -0.56693,-3.546969 -1.55705,-7.01318 -2.94917,-10.324435 4.13998,0.988311 7.97706,2.969815 11.17968,5.773292 18.42094,16.124418 32.80897,74.296058 -48.49213,90.874038 39.883,-2.15373 84.94037,-20.41468 76.31782,-73.16814 -3.07337,-18.803143 -18.08672,-30.086119 -61.01023,-37.922236 -8.62671,-1.399736 -10.35971,-7.046786 -7.35356,-11.697996 -3.82332,-2.207395 -7.00426,-4.608288 -9.15861,-8.783958 z" />
      <path
         id="path134"
         style="display:inline;fill:#f9f9f9;fill-opacity:1;stroke:none;stroke-width:0.504031;stroke-linecap:round;stroke-linejoin:bevel"
         d="m 214.14475,14.293676 c -11.51357,0.202073 -22.57782,4.292101 -33.39279,13.236401 7.69589,-2.983996 14.22958,-3.770974 20.08611,-3.27887 -23.64853,9.37723 -24.48894,31.550136 -24.25382,37.631293 1.72377,-7.976338 5.94146,-14.751555 12.71189,-20.296949 -10.60039,17.143219 -10.47581,37.019182 2.26188,50.106502 1.11356,1.14412 2.22729,2.288191 3.34088,3.432347 -6.56091,-17.409218 -2.55293,-37.8583 8.78551,-51.284724 l 0.90847,-1.075385 c -1.32392,-3.831487 -1.8485,-7.013065 -1.46503,-7.186642 5.31395,7.998674 10.25199,16.089225 21.65449,18.414378 15.91871,-4.265406 28.22114,-2.218097 30.56403,-2.709913 0.0984,-0.03035 0.18477,-0.05305 0.2837,-0.08371 3.83021,-0.89087 6.10086,-2.374659 7.81245,-4.071069 -3.63209,-2.500117 -8.58817,-2.172375 -14.55415,-1.440223 -17.2373,2.115405 -22.02378,-1.846715 -30.28653,-10.109459 0,0 19.43184,6.416813 29.67726,5.146456 5.98357,-0.734322 12.931,-2.265471 16.81448,1.622123 l 0.52296,-2.803964 C 264.66974,27.81614 233.58607,13.952465 214.14475,14.293676 Z m 1.77715,6.657474 h 12.0065 c 0.11346,3.97e-4 0.22686,0.0045 0.34004,0.0124 7.32917,0.267026 13.47273,9.03632 20.72638,10.301697 -2.77624,0 -8.12112,1.340343 -16.0569,-3.930509 l -0.0114,-0.0016 c -1.3e-4,5.29e-4 -2.6e-4,10e-4 -5.3e-4,0.0016 -0.0348,0.142583 -0.0756,0.283616 -0.12247,0.422713 -0.085,0.249439 -0.18901,0.491995 -0.31109,0.725537 -0.0276,0.05323 -0.0564,0.105559 -0.0858,0.157613 -0.097,0.171513 -0.20385,0.337321 -0.31987,0.496611 -0.0447,0.06155 -0.0892,0.123054 -0.13643,0.182417 -0.0709,0.09012 -0.14489,0.177846 -0.22169,0.263033 -0.10327,0.113287 -0.21186,0.221092 -0.32453,0.324528 -0.0747,0.06787 -0.1514,0.133523 -0.22996,0.196888 -0.10762,0.08778 -0.21893,0.170745 -0.33331,0.249597 -0.0886,0.06069 -0.17908,0.118594 -0.2713,0.173633 -0.12325,0.07408 -0.2494,0.143022 -0.37879,0.206705 -0.0545,0.0282 -0.10942,0.05541 -0.16485,0.08165 l -5.3e-4,5.29e-4 c -0.17794,0.07977 -0.36251,0.145766 -0.54983,0.205156 -0.0548,0.0178 -0.10997,0.03469 -0.16537,0.05064 -0.19398,0.05436 -0.39206,0.09725 -0.59376,0.128674 -0.0445,0.0064 -0.0892,0.0123 -0.13384,0.01757 -0.21513,0.02775 -0.43274,0.04681 -0.65423,0.04703 -0.22829,2.26e-4 -0.45134,-0.01946 -0.67179,-0.04806 -0.0457,-0.0064 -0.0914,-0.01351 -0.13694,-0.02119 -0.20668,-0.03251 -0.40945,-0.07543 -0.6072,-0.131775 -0.0165,-0.0041 -0.0331,-0.0082 -0.0496,-0.01242 -0.2234,-0.06607 -0.43943,-0.147909 -0.64905,-0.242362 -0.0246,-0.01169 -0.049,-0.02358 -0.0734,-0.03566 -0.18933,-0.08897 -0.37238,-0.188176 -0.54828,-0.29869 -0.0249,-0.01495 -0.0497,-0.03011 -0.0744,-0.04547 -0.18719,-0.122063 -0.36556,-0.255802 -0.53486,-0.400492 -0.0294,-0.02619 -0.0585,-0.05272 -0.0873,-0.07958 -0.14189,-0.126985 -0.2765,-0.26126 -0.40359,-0.403076 -0.0295,-0.03167 -0.0586,-0.06371 -0.0873,-0.09612 -0.14195,-0.166616 -0.27364,-0.342162 -0.39377,-0.526066 -0.0188,-0.0303 -0.0372,-0.06079 -0.0553,-0.09147 -0.10519,-0.168537 -0.20024,-0.343185 -0.28578,-0.523999 -0.0153,-0.03085 -0.0303,-0.06186 -0.045,-0.09302 -0.0918,-0.204537 -0.17131,-0.415428 -0.23617,-0.633036 -0.007,-0.02802 -0.0147,-0.05609 -0.0217,-0.08423 -0.0519,-0.185709 -0.0925,-0.375438 -0.12351,-0.568958 -0.009,-0.05241 -0.017,-0.104953 -0.0243,-0.157613 -0.0281,-0.21782 -0.0475,-0.438618 -0.0475,-0.664042 -6.70215,-5.156994 -6.84972,-5.156791 -6.84972,-5.156791 z" />
      <g
         id="g136"
         style="display:inline;fill:#f9f9f9"
         transform="matrix(0.26458333,0,0,0.26458333,134.63746,7.0408898)">
        <path
           style="display:inline;fill:#f9f9f9;fill-opacity:1;stroke:none;stroke-width:37.7953;stroke-linecap:butt;stroke-linejoin:miter;stroke-dasharray:none;stroke-opacity:1"
           d="m 175.76953,619.43358 c 47.24353,-54.64919 127.68779,-70.06602 188.51172,-97.05859 34.31248,-15.22725 62.1158,-33.51165 76.93945,-62.55078 12.0672,-23.63931 16.17595,-55.45367 6.58594,-100.95703 C 441.33143,388.35086 415.81457,417.23236 346,449.33202 290.1556,475.00841 206.85466,537.25625 175.76953,619.43358 Z"
           id="path135" />
        <path
           style="fill:#f9f9f9;fill-opacity:1;stroke:none;stroke-width:37.7953;stroke-linecap:butt;stroke-linejoin:miter;stroke-dasharray:none;stroke-opacity:1"
           d="m 462.46875,338.96093 c 14.67867,56.69394 11.54393,98.18998 -4.41602,129.45508 -17.70372,34.68111 -50.13106,55.26762 -86.10546,71.23243 C 302.1468,570.6246 218.03162,586.60681 179.14648,646.29101 550.80503,616.65235 515.45486,411.65348 462.46875,338.96093 Z"
           id="path136" />
      </g>
      <path
         style="display:inline;fill:#f9f9f9;fill-opacity:1;stroke:none;stroke-width:0.504031;stroke-linecap:round;stroke-linejoin:bevel"
         d="m 196.00374,103.3916 -6.27093,-6.4146 -1.7477,-1.787486 -5.3e-4,-5.29e-4 -1.7477,-1.787488 -2.05569,-2.102712 -7.84551,-0.900721 c -4.0962,4.261942 -7.59002,8.970568 -10.70632,13.958836 -0.01,2.15529 0.3381,4.35574 1.31361,6.63526 1.87035,4.08318 4.48797,6.20118 7.80262,6.48539 -2.1071,-2.52287 -3.07415,-4.94761 -3.41219,-7.31842 -0.17144,-1.50559 3.27685,-9.1715 7.00164,-11.427723 1.18374,-0.07872 7.63628,1.842263 15.56752,4.323763 z"
         id="path137" />
      <path
         id="path138"
         style="display:inline;fill:#f9f9f9;stroke-width:0.167485;stroke-linecap:round;stroke-linejoin:bevel"
         d="m 227.9288,22.87079 c 0,0 -0.41655,1.053822 -1.01976,1.853748 -0.31739,0.4209 -0.69924,0.816101 -0.69924,1.383709 0,0.566006 0.37961,0.961024 0.69566,1.381023 0.60307,0.801434 1.02334,1.856435 1.02334,1.856435 0,0 0.41656,-1.053823 1.01977,-1.853749 0.31739,-0.420897 0.69924,-0.816101 0.69924,-1.383709 0,-0.566004 -0.37961,-0.961024 -0.69566,-1.381023 -0.60307,-0.801431 -1.02335,-1.856434 -1.02335,-1.856434 z" />
    </g>
  </g>
</svg>
