<?xml version="1.0" encoding="UTF-8" standalone="no"?>
<!-- Created with Inkscape (http://www.inkscape.org/) -->

<svg
   width="94.875061"
   height="18.005157"
   viewBox="0 0 25.102359 4.7638648"
   version="1.1"
   id="svg1"
   xmlns="http://www.w3.org/2000/svg"
   xmlns:svg="http://www.w3.org/2000/svg">
  <defs
     id="defs1" />
  <g
     id="layer1"
     transform="translate(-119.33397,-30.955567)">
    <path
       id="text31"
       style="font-style:italic;font-weight:300;font-size:5.3559px;font-family:Zain;-inkscape-font-specification:'Zain Light Italic';text-align:center;letter-spacing:0px;word-spacing:0px;text-anchor:middle;white-space:pre;fill:#f9f9f9;stroke-width:12.4473;stroke-linecap:square;paint-order:stroke fill markers"
       d="m 120.25122,30.955568 c -0.1905,0 -0.35527,0.04194 -0.49403,0.126607 -0.1364,0.08232 -0.24128,0.200079 -0.31419,0.35295 -0.0729,0.15287 -0.10903,0.332539 -0.10903,0.539502 0,0.310444 0.0798,0.557595 0.23977,0.74104 0.15993,0.181092 0.38585,0.271818 0.67748,0.271818 0.29163,0 0.51629,-0.09073 0.67386,-0.271818 0.15993,-0.183445 0.23978,-0.430596 0.23978,-0.74104 0,-0.206963 -0.0367,-0.386632 -0.10955,-0.539502 -0.0729,-0.152871 -0.17727,-0.270635 -0.31368,-0.35295 -0.13405,-0.08467 -0.29756,-0.126607 -0.49041,-0.126607 z m 13.16199,0 c -0.19756,0 -0.3694,0.04067 -0.51521,0.12299 -0.14347,0.07996 -0.25364,0.196462 -0.33125,0.349332 -0.0776,0.150519 -0.11679,0.330704 -0.11679,0.540019 0,0.237537 0.0425,0.431358 0.12712,0.581877 0.0847,0.150517 0.19864,0.261207 0.3421,0.331762 0.14347,0.07056 0.30242,0.105937 0.47646,0.105937 0.12935,0 0.24585,-0.01795 0.34933,-0.05323 0.10348,-0.03763 0.20456,-0.09499 0.30334,-0.172599 0.0282,-0.02352 0.0469,-0.04474 0.0563,-0.06356 0.009,-0.02117 0.0139,-0.04821 0.0139,-0.08113 v -0.691431 c 0,-0.03058 -0.0129,-0.04599 -0.0388,-0.04599 h -0.71623 c -0.0306,0 -0.0455,0.01795 -0.0455,0.05323 v 0.06305 c 0,0.131704 0.0682,0.197921 0.20464,0.197921 h 0.2713 v 0.345715 c -0.0659,0.04468 -0.13028,0.07627 -0.19378,0.09509 -0.0635,0.01882 -0.133,0.02842 -0.20826,0.02842 -0.18344,0 -0.32572,-0.05914 -0.42685,-0.176734 -0.10113,-0.119944 -0.15192,-0.286726 -0.15192,-0.500744 0,-0.244593 0.0553,-0.422248 0.16588,-0.532785 0.11289,-0.112888 0.26603,-0.169498 0.45888,-0.169498 0.17404,0 0.33375,0.04044 0.47956,0.120406 0.0118,0.0024 0.0226,0.0069 0.032,0.01395 0.009,0.0047 0.0172,0.0067 0.0243,0.0067 0.0188,0 0.0317,-0.0149 0.0388,-0.04547 l 0.0181,-0.08113 c 0.0188,-0.06585 0.0175,-0.118666 -0.004,-0.158647 -0.0212,-0.03998 -0.0669,-0.07335 -0.13746,-0.09922 -0.0659,-0.02587 -0.13788,-0.04583 -0.21549,-0.05994 -0.0753,-0.01646 -0.16219,-0.02429 -0.26097,-0.02429 z m -11.58896,0.03514 c -0.0259,0 -0.0388,0.01415 -0.0388,0.04237 v 1.879989 c 0,0.02587 0.0129,0.03876 0.0388,0.03876 h 0.2682 c 0.0259,0 0.0388,-0.01289 0.0388,-0.03876 v -0.772563 h 0.68109 c 0.0329,0 0.0491,-0.01617 0.0491,-0.04909 v -0.0708 c 0,-0.129351 -0.069,-0.193786 -0.20774,-0.193786 h -0.52249 v -0.511593 h 0.75861 c 0.0165,0 0.0281,-0.0045 0.0351,-0.01395 0.009,-0.01176 0.0145,-0.0239 0.0145,-0.03565 v -0.0739 c 0,-0.134055 -0.0682,-0.201021 -0.20464,-0.201021 z m 1.68982,0 c -0.0259,0 -0.0388,0.01415 -0.0388,0.04237 v 1.879989 c 0,0.02587 0.0129,0.03876 0.0388,0.03876 h 0.2682 c 0.0259,0 0.0388,-0.01289 0.0388,-0.03876 v -0.772563 h 0.68109 c 0.0329,0 0.0491,-0.01617 0.0491,-0.04909 v -0.0708 c 0,-0.129351 -0.069,-0.193786 -0.20774,-0.193786 h -0.52245 v -0.511593 h 0.75861 c 0.0165,0 0.0281,-0.0045 0.0351,-0.01395 0.009,-0.01176 0.0145,-0.0239 0.0145,-0.03565 v -0.0739 c 0,-0.134055 -0.0682,-0.201021 -0.20464,-0.201021 z m 2.34611,0 c -0.0259,0 -0.0387,0.01415 -0.0387,0.04237 v 0.239779 c 0,0.02822 0.0129,0.04237 0.0387,0.04237 h 0.52193 v 1.597835 c 0,0.02587 0.0142,0.03876 0.0424,0.03876 h 0.27181 c 0.0235,0 0.0351,-0.01289 0.0351,-0.03876 v -1.597835 h 0.52555 c 0.0165,0 0.0286,-0.0045 0.0357,-0.01395 0.009,-0.01176 0.014,-0.0239 0.014,-0.03565 v -0.0739 c 0,-0.134056 -0.0695,-0.201022 -0.20826,-0.201022 z m 1.98954,0 c -0.0259,0 -0.0387,0.01415 -0.0387,0.04237 v 1.879989 c 0,0.02587 0.0129,0.03876 0.0387,0.03876 h 0.26821 c 0.0259,0 0.0387,-0.01289 0.0387,-0.03876 v -0.772563 h 0.77256 v 0.772563 c 0,0.02587 0.0129,0.03876 0.0388,0.03876 h 0.27182 c 0.0235,0 0.0351,-0.01289 0.0351,-0.03876 v -1.611788 c 0,-0.110537 -0.0232,-0.189641 -0.0703,-0.236678 -0.0447,-0.04939 -0.11292,-0.0739 -0.20464,-0.0739 h -0.032 c -0.0259,0 -0.0387,0.01415 -0.0387,0.04237 v 0.793749 h -0.77257 v -0.525549 c 0,-0.110537 -0.0232,-0.189641 -0.0703,-0.236678 -0.047,-0.04939 -0.11526,-0.0739 -0.20463,-0.0739 z m 2.13114,0 c -0.0259,0 -0.0393,0.01415 -0.0393,0.04237 v 1.879989 c 0,0.02587 0.0134,0.03876 0.0393,0.03876 h 1.09709 c 0.0306,0 0.0455,-0.01617 0.0455,-0.04909 v -0.07441 c 0,-0.131704 -0.0682,-0.197404 -0.20464,-0.197404 h -0.63097 v -0.497127 h 0.69143 c 0.0306,0 0.0455,-0.01668 0.0455,-0.04961 v -0.07752 c 0,-0.129352 -0.0682,-0.194303 -0.20464,-0.194303 h -0.53226 v -0.500748 h 0.75809 c 0.0329,0 0.0496,-0.01668 0.0496,-0.04961 v -0.0739 c 0,-0.131704 -0.0682,-0.197404 -0.20464,-0.197404 z m 4.79764,0 c -0.0259,0 -0.0388,0.01415 -0.0388,0.04237 v 1.879989 c 0,0.02587 0.0129,0.03876 0.0388,0.03876 h 0.2682 c 0.0259,0 0.0388,-0.01289 0.0388,-0.03876 v -0.641822 h 0.34933 l 0.35243,0.638721 c 0.0165,0.02822 0.0435,0.04186 0.0811,0.04186 h 0.29662 c 0.0118,0 0.0188,-0.0033 0.0212,-0.01033 0.005,-0.0094 0.005,-0.01902 0,-0.02842 l -0.40928,-0.687813 c 0.11994,-0.04704 0.21521,-0.122345 0.28577,-0.225826 0.0729,-0.103481 0.10904,-0.229072 0.10904,-0.377239 0,-0.188147 -0.0574,-0.340028 -0.1726,-0.455268 -0.11524,-0.117593 -0.29618,-0.176217 -0.54312,-0.176217 z m 2.02468,0 c -0.0259,0 -0.0387,0.01415 -0.0387,0.04237 v 1.879989 c 0,0.02587 0.0129,0.03876 0.0387,0.03876 h 0.2682 c 0.0259,0 0.0388,-0.01289 0.0388,-0.03876 v -1.615406 c 0,-0.110537 -0.0232,-0.18964 -0.0703,-0.236678 -0.0447,-0.04703 -0.11292,-0.07028 -0.20464,-0.07028 z m 1.01286,0 c -0.0259,0 -0.0393,0.01415 -0.0393,0.04237 v 1.879989 c 0,0.02587 0.0134,0.03876 0.0393,0.03876 h 0.54312 c 0.21167,0 0.39387,-0.03486 0.54674,-0.10542 0.15522,-0.07055 0.27425,-0.179978 0.35656,-0.328145 0.0847,-0.148167 0.12661,-0.339973 0.12661,-0.575159 0,-0.176389 -0.027,-0.325739 -0.0811,-0.448034 -0.0517,-0.122297 -0.12452,-0.220098 -0.21859,-0.293006 -0.0941,-0.07526 -0.20097,-0.129339 -0.32091,-0.162264 -0.11995,-0.03293 -0.2468,-0.04909 -0.38086,-0.04909 z m -17.56482,0.292488 c 0.0988,0 0.19025,0.02123 0.27492,0.06356 0.087,0.04233 0.15652,0.114361 0.20826,0.215491 0.0517,0.101129 0.0775,0.23834 0.0775,0.412378 0,0.174037 -0.0258,0.311765 -0.0775,0.412894 -0.0517,0.09878 -0.11998,0.169539 -0.20464,0.211874 -0.0847,0.03998 -0.17741,0.05995 -0.27854,0.05995 -0.10113,0 -0.19513,-0.01997 -0.28215,-0.05995 -0.0847,-0.04233 -0.1529,-0.113096 -0.20464,-0.211874 -0.0517,-0.101129 -0.078,-0.238857 -0.078,-0.412894 0,-0.174038 0.0263,-0.311249 0.078,-0.412378 0.0517,-0.101128 0.11997,-0.173156 0.20464,-0.215491 0.087,-0.04233 0.18102,-0.06356 0.28215,-0.06356 z m 14.83424,0.03204 h 0.40204 c 0.10113,0 0.18351,0.02577 0.24701,0.07751 0.0635,0.05174 0.0951,0.128314 0.0951,0.229443 0,0.124648 -0.0341,0.211577 -0.10232,0.260966 -0.0682,0.04704 -0.14932,0.07028 -0.2434,0.07028 h -0.39842 z m 3.03754,0 h 0.25735 c 0.20931,0 0.37028,0.047 0.48317,0.141077 0.11289,0.09407 0.1695,0.25959 0.1695,0.497127 0,0.22813 -0.0566,0.398708 -0.1695,0.511597 -0.11053,0.110536 -0.26696,0.165881 -0.46922,0.165881 h -0.2713 z m -14.26993,2.364713 c -0.17169,0 -0.3223,0.03739 -0.45165,0.112655 -0.12935,0.07291 -0.23625,0.171458 -0.32091,0.296106 -0.0823,0.122296 -0.14474,0.260024 -0.18707,0.412895 -0.0423,0.150518 -0.0636,0.303664 -0.0636,0.458886 0.002,0.22813 0.0693,0.411595 0.20102,0.550354 0.13405,0.136408 0.31499,0.204639 0.54312,0.204639 0.17638,0 0.32827,-0.03665 0.45527,-0.109554 0.127,-0.07291 0.23187,-0.170709 0.31419,-0.293005 0.0823,-0.122296 0.14347,-0.258759 0.18345,-0.409278 0.04,-0.150518 0.0599,-0.304412 0.0599,-0.461987 -0.002,-0.230481 -0.0693,-0.415212 -0.20103,-0.553971 -0.1317,-0.138759 -0.30935,-0.20774 -0.53278,-0.20774 z m 13.2116,0 c -0.14817,0 -0.27681,0.02577 -0.38499,0.07752 -0.10819,0.05174 -0.19132,0.121238 -0.25012,0.208256 -0.0588,0.08702 -0.0884,0.185569 -0.0884,0.296106 0.002,0.115241 0.0448,0.20798 0.12712,0.278536 0.0823,0.07056 0.21372,0.141318 0.39481,0.211874 0.15287,0.06115 0.26103,0.122303 0.32453,0.183451 0.0635,0.0588 0.0956,0.127028 0.0956,0.204638 0,0.122297 -0.0495,0.222112 -0.14831,0.299724 -0.0964,0.07526 -0.2291,0.113171 -0.39843,0.113171 -0.11759,0 -0.22575,-0.02376 -0.32453,-0.0708 -0.0988,-0.04939 -0.17207,-0.1209 -0.21911,-0.214974 -0.0118,-0.02352 -0.0259,-0.03565 -0.0424,-0.03565 -0.0376,0 -0.0563,0.03285 -0.0563,0.0987 0,0.07055 0.0316,0.136772 0.0951,0.19792 0.0659,0.06115 0.14748,0.109416 0.24391,0.144694 0.0964,0.03528 0.19245,0.05018 0.28887,0.04547 0.2587,-0.01176 0.44798,-0.06584 0.56792,-0.162264 0.11995,-0.09642 0.18036,-0.249055 0.18036,-0.458369 0,-0.105834 -0.0404,-0.197825 -0.12041,-0.275436 -0.08,-0.07761 -0.2101,-0.151653 -0.39119,-0.222208 -0.15287,-0.0588 -0.26356,-0.114141 -0.33176,-0.165882 -0.0682,-0.05409 -0.10232,-0.119793 -0.10232,-0.197404 0,-0.07526 0.0225,-0.142225 0.0672,-0.201021 0.0447,-0.0588 0.10457,-0.104534 0.17983,-0.137459 0.0776,-0.03528 0.16327,-0.05323 0.25735,-0.05323 0.19285,0 0.36216,0.05788 0.50798,0.173116 0.002,0.0024 0.005,0.0036 0.007,0.0036 0.0118,0.01176 0.0221,0.01757 0.0315,0.01757 0.0141,0 0.025,-0.0096 0.032,-0.02842 l 0.0248,-0.05995 c 0.005,-0.0071 0.007,-0.01413 0.007,-0.02119 v -0.02119 c 0,-0.03058 -0.0291,-0.06342 -0.0879,-0.0987 -0.0565,-0.03528 -0.12974,-0.0656 -0.21911,-0.09147 -0.087,-0.02587 -0.17596,-0.03876 -0.26768,-0.03876 z m -11.85716,0.03876 c -0.0117,0 -0.0188,0.0078 -0.0212,0.02429 l -0.33848,1.915645 v 0.01085 c 0,0.0071 0.005,0.01034 0.0139,0.01034 h 0.14469 c 0.0118,0 0.0188,-0.0071 0.0212,-0.02119 l 0.27854,-1.580265 0.65991,1.555977 c 0.0141,0.03058 0.0374,0.04547 0.0703,0.04547 h 0.11989 c 0.0117,0 0.0188,-0.0071 0.0212,-0.02119 l 0.31057,-1.756482 c 0.002,-0.0071 0.004,-0.01413 0.004,-0.02119 v -0.02842 c 0,-0.03998 -0.0104,-0.07157 -0.0315,-0.09509 -0.0188,-0.02587 -0.0459,-0.03876 -0.0811,-0.03876 h -0.0181 c -0.0117,0 -0.0188,0.0078 -0.0212,0.02429 l -0.29249,1.65468 -0.64905,-1.534274 c -0.0259,-0.06115 -0.0496,-0.100326 -0.0708,-0.116788 -0.0212,-0.01882 -0.0553,-0.02791 -0.10232,-0.02791 z m 2.28255,0 c -0.0118,0 -0.0188,0.0078 -0.0212,0.02429 l -0.0212,0.123507 v 0.0072 c 0,0.0094 0.005,0.01395 0.0139,0.01395 h 0.54002 l -0.3142,1.770951 v 0.0072 c 0,0.0094 0.005,0.01395 0.0145,0.01395 h 0.14108 c 0.0141,0 0.0212,-0.0071 0.0212,-0.02119 l 0.31368,-1.770952 h 0.53278 c 0.0188,0 0.0292,-0.0091 0.0315,-0.02791 l 0.007,-0.03876 c 0.002,-0.0047 0.004,-0.01431 0.004,-0.02842 0,-0.04939 -0.0308,-0.0739 -0.092,-0.0739 z m 1.6123,0 c -0.0117,0 -0.0188,0.0078 -0.0212,0.02429 l -0.339,1.915645 v 0.0072 c 0,0.0094 0.005,0.01395 0.0145,0.01395 h 0.14107 c 0.0118,0 0.0188,-0.0071 0.0212,-0.02119 l 0.15503,-0.867648 h 0.97358 l -0.15141,0.867648 v 0.0072 c 0,0.0094 0.005,0.01395 0.0139,0.01395 h 0.14108 c 0.0117,0 0.0188,-0.0071 0.0212,-0.02119 l 0.30696,-1.753381 c 0.002,-0.0094 0.004,-0.01723 0.004,-0.02429 0.002,-0.0094 0.004,-0.01775 0.004,-0.02481 0,-0.04233 -0.0109,-0.07518 -0.032,-0.0987 -0.0212,-0.02587 -0.0495,-0.03876 -0.0848,-0.03876 h -0.0139 c -0.0141,0 -0.0212,0.0078 -0.0212,0.02428 l -0.15865,0.885734 h -0.97358 l 0.1266,-0.72347 c 0.002,-0.0094 0.004,-0.01723 0.004,-0.02429 v -0.02481 c 0,-0.09172 -0.0374,-0.137459 -0.11266,-0.137459 z m 1.84123,0 c -0.0117,0 -0.0188,0.0078 -0.0212,0.02429 l -0.33848,1.915645 v 0.01085 c 0,0.0071 0.005,0.01034 0.0139,0.01034 h 1.00924 c 0.0212,0 0.0315,-0.0083 0.0315,-0.02481 l 0.007,-0.03876 c 0.002,-0.0047 0.004,-0.01379 0.004,-0.02791 0,-0.04939 -0.0308,-0.07441 -0.092,-0.07441 h -0.76895 l 0.12713,-0.719337 h 0.75137 c 0.0188,0 0.0292,-0.0071 0.0315,-0.02119 l 0.007,-0.04237 v -0.01395 c 0.002,-0.007 0.004,-0.0121 0.004,-0.01447 0,-0.04939 -0.0308,-0.0739 -0.092,-0.0739 h -0.67386 l 0.13074,-0.744658 h 0.81494 c 0.0188,0 0.0292,-0.0078 0.0315,-0.02428 l 0.007,-0.03876 v -0.01447 c 0.002,-0.0047 0.004,-0.0092 0.004,-0.01395 0,-0.04939 -0.0308,-0.0739 -0.092,-0.0739 z m 2.0991,0 c -0.0141,0 -0.0224,0.0078 -0.0248,0.02429 l -0.4408,1.915645 v 0.0072 c 0,0.0094 0.005,0.01395 0.0139,0.01395 h 0.14108 c 0.0117,0 0.0188,-0.0071 0.0212,-0.02119 l 0.34572,-1.485181 0.26148,1.481563 c 0.002,0.01646 0.008,0.02481 0.0176,0.02481 h 0.12351 c 0.0165,0 0.0293,-0.0083 0.0388,-0.02481 l 0.80408,-1.506367 -0.18707,1.509985 v 0.01085 c 0,0.0071 0.005,0.01033 0.0145,0.01033 h 0.1447 c 0.0141,0 0.0212,-0.0071 0.0212,-0.02119 l 0.21136,-1.770952 c 0.002,-0.0047 0.002,-0.0092 0,-0.01395 v -0.01757 c 0,-0.04233 -0.0129,-0.07518 -0.0388,-0.0987 -0.0259,-0.02587 -0.0587,-0.03876 -0.0987,-0.03876 h -0.0109 c -0.009,0 -0.0185,0.0078 -0.0279,0.02429 l -0.89245,1.707906 -0.26458,-1.591117 c -0.009,-0.05409 -0.0248,-0.09074 -0.046,-0.109554 -0.0188,-0.02116 -0.0555,-0.03152 -0.10955,-0.03152 z m 2.09548,0 c -0.0118,0 -0.0188,0.0078 -0.0212,0.02429 l -0.33848,1.915645 v 0.01085 c 0,0.0071 0.005,0.01034 0.014,0.01034 h 1.00924 c 0.0212,0 0.0315,-0.0083 0.0315,-0.02481 l 0.007,-0.03876 c 0.002,-0.0047 0.003,-0.01379 0.003,-0.02791 0,-0.04939 -0.0303,-0.07441 -0.0915,-0.07441 h -0.76895 l 0.12712,-0.719337 h 0.75138 c 0.0188,0 0.0292,-0.0071 0.0315,-0.02119 l 0.007,-0.04237 v -0.01395 c 0.002,-0.007 0.004,-0.0121 0.004,-0.01447 0,-0.04939 -0.0308,-0.0739 -0.092,-0.0739 h -0.67386 l 0.13074,-0.744658 h 0.81494 c 0.0188,0 0.0292,-0.0078 0.0315,-0.02428 l 0.007,-0.03876 v -0.01447 c 0.002,-0.0047 0.004,-0.0092 0.004,-0.01395 0,-0.04939 -0.0308,-0.0739 -0.092,-0.0739 z m 2.96674,0 c -0.0118,0 -0.0188,0.0078 -0.0212,0.02429 l -0.33848,1.915645 v 0.0072 c 0,0.0094 0.005,0.01395 0.014,0.01395 h 0.14107 c 0.0118,0 0.0188,-0.0071 0.0212,-0.02119 l 0.15555,-0.867648 h 0.97358 l -0.15193,0.867648 v 0.0072 c 0,0.0094 0.005,0.01395 0.0145,0.01395 h 0.14108 c 0.0118,0 0.0188,-0.0071 0.0212,-0.02119 l 0.30695,-1.753381 c 0.002,-0.0094 0.003,-0.01723 0.003,-0.02429 0.002,-0.0094 0.004,-0.01775 0.004,-0.02481 0,-0.04233 -0.0104,-0.07518 -0.0315,-0.0987 -0.0212,-0.02587 -0.0495,-0.03876 -0.0848,-0.03876 h -0.0139 c -0.0141,0 -0.0212,0.0078 -0.0212,0.02428 l -0.15865,0.885734 h -0.9741 l 0.12713,-0.72347 c 0.002,-0.0094 0.004,-0.01723 0.004,-0.02429 v -0.02481 c 0,-0.09172 -0.0374,-0.137459 -0.11265,-0.137459 z m -14.26631,0.126607 c 0.0917,0 0.17992,0.01795 0.26458,0.05323 0.087,0.03528 0.15905,0.09517 0.21549,0.179834 0.0588,0.08467 0.0879,0.202432 0.0879,0.35295 0,0.131704 -0.0136,0.263104 -0.0419,0.394808 -0.0282,0.129351 -0.0757,0.249648 -0.1416,0.360185 -0.0635,0.108186 -0.1479,0.195114 -0.25373,0.260966 -0.10348,0.06583 -0.23034,0.09995 -0.38085,0.102319 -0.0894,0 -0.17757,-0.01542 -0.26459,-0.046 -0.0847,-0.03293 -0.15669,-0.08827 -0.21549,-0.165882 -0.0588,-0.07996 -0.0916,-0.189386 -0.0987,-0.328145 -0.005,-0.131703 0.007,-0.26437 0.0351,-0.398425 0.0306,-0.136408 0.0788,-0.262514 0.14469,-0.377754 0.0682,-0.117593 0.15514,-0.211599 0.26097,-0.282154 0.10818,-0.07055 0.23757,-0.105937 0.38809,-0.105937 z" />
    <path
       d="m 142.31966,34.395833 c 0.29104,0 0.52917,0.238125 0.52917,0.529167 0,0.291042 -0.23813,0.529167 -0.52917,0.529167 -0.29104,0 -0.52917,-0.238125 -0.52917,-0.529167 0,-0.291042 0.23813,-0.529167 0.52917,-0.529167 m 0,-1.5875 0.52917,0.529167 -0.52917,0.529167 -0.52917,-0.529167 0.52917,-0.529167 m 0,-1.5875 c 0.29104,0 0.52917,0.238125 0.52917,0.529167 0,0.291042 -0.23813,0.529167 -0.52917,0.529167 -0.29104,0 -0.52917,-0.238125 -0.52917,-0.529167 0,-0.291042 0.23813,-0.529167 0.52917,-0.529167 m -1.5875,3.175 0.52917,0.529167 -0.52917,0.529167 -0.52917,-0.529167 0.52917,-0.529167 m 0,-1.5875 c 0.29104,0 0.52917,0.238125 0.52917,0.529167 0,0.291042 -0.23813,0.529167 -0.52917,0.529167 -0.29104,0 -0.52917,-0.238125 -0.52917,-0.529167 0,-0.291042 0.23813,-0.529167 0.52917,-0.529167 m 3.175,1.5875 c 0.29104,0 0.52917,0.238125 0.52917,0.529167 0,0.291042 -0.23813,0.529167 -0.52917,0.529167 -0.29104,0 -0.52917,-0.238125 -0.52917,-0.529167 0,-0.291042 0.23813,-0.529167 0.52917,-0.529167 m 0,-3.175 0.52917,0.529167 -0.52917,0.529167 L 143.37799,31.75 Z"
       id="path1"
       style="fill:#f9f9f9;stroke-width:0.264583" />
  </g>
</svg>
