<?xml version="1.0" encoding="UTF-8" standalone="no"?>
<!-- Created with Inkscape (http://www.inkscape.org/) -->

<svg
   width="120"
   height="120"
   viewBox="0 0 120 120"
   version="1.1"
   id="svg1"
   inkscape:version="1.3.2 (091e20e, 2023-11-25)"
   sodipodi:docname="SiteQR.svg"
   xmlns:inkscape="http://www.inkscape.org/namespaces/inkscape"
   xmlns:sodipodi="http://sodipodi.sourceforge.net/DTD/sodipodi-0.dtd"
   xmlns="http://www.w3.org/2000/svg"
   xmlns:svg="http://www.w3.org/2000/svg">
  <sodipodi:namedview
     id="namedview1"
     pagecolor="#505050"
     bordercolor="#ffffff"
     borderopacity="1"
     inkscape:showpageshadow="0"
     inkscape:pageopacity="0"
     inkscape:pagecheckerboard="1"
     inkscape:deskcolor="#505050"
     inkscape:document-units="px"
     inkscape:zoom="4.743508"
     inkscape:cx="44.692662"
     inkscape:cy="58.290194"
     inkscape:window-width="1920"
     inkscape:window-height="1006"
     inkscape:window-x="1080"
     inkscape:window-y="290"
     inkscape:window-maximized="1"
     inkscape:current-layer="layer1" />
  <defs
     id="defs1" />
  <g
     inkscape:label="Layer 1"
     inkscape:groupmode="layer"
     id="layer1">
    <g
       inkscape:label="QR Code: https://loraptor.smuggr.xyz"
       transform="translate(-6,-6)"
       id="g5">
      <path
         id="rect4"
         style="fill:#ffffff"
         d="M 0 0 L 0 132 L 132 132 L 132 0 L 0 0 z M 16.400391 16 L 43.599609 16 C 43.820509 16 44 16.179491 44 16.400391 L 44 43.599609 C 44 43.820509 43.820509 44 43.599609 44 L 16.400391 44 C 16.179491 44 16 43.820509 16 43.599609 L 16 16.400391 C 16 16.179491 16.179491 16 16.400391 16 z M 60.400391 16 L 71.599609 16 C 71.820509 16 72 16.179491 72 16.400391 L 72 24 L 75.599609 24 C 75.820509 24 76 24.179491 76 24.400391 L 76 28 L 79.599609 28 C 79.820509 28 80 27.820509 80 27.599609 L 80 24.400391 C 80 24.179491 80.179491 24 80.400391 24 L 83.599609 24 C 83.820509 24 84 24.179491 84 24.400391 L 84 31.599609 C 84 31.820509 83.820509 32 83.599609 32 L 76.400391 32 C 76.179491 32 76 31.820509 76 31.599609 L 76 28 L 75.599609 28 L 72 28 L 72 36 L 75.599609 36 C 75.820509 36 76 36.179491 76 36.400391 L 76 43.599609 C 76 43.820509 76.179491 44 76.400391 44 L 80 44 L 80 40.400391 C 80 40.179491 80.179491 40 80.400391 40 L 83.599609 40 C 83.820509 40 84 40.179491 84 40.400391 L 84 43.599609 C 84 43.820509 83.820509 44 83.599609 44 L 80 44 L 80 47.599609 C 80 47.820509 80.179491 48 80.400391 48 L 83.599609 48 C 83.820509 48 84 48.179491 84 48.400391 L 84 51.599609 C 84 51.820509 83.820509 52 83.599609 52 L 80.400391 52 C 80.179491 52 80 52.179491 80 52.400391 L 80 55.599609 C 80 55.820509 80.179491 56 80.400391 56 L 87.599609 56 C 87.820509 56 88 56.179491 88 56.400391 L 88 64 L 91.599609 64 C 91.820509 64 92 63.820509 92 63.599609 L 92 60.400391 C 92 60.179491 92.179491 60 92.400391 60 L 99.599609 60 C 99.820509 60 100 59.820509 100 59.599609 L 100 56.400391 C 100 56.179491 99.820509 56 99.599609 56 L 92.400391 56 C 92.179491 56 92 55.820509 92 55.599609 L 92 52.400391 C 92 52.179491 92.179491 52 92.400391 52 L 95.599609 52 C 95.820509 52 96 51.820509 96 51.599609 L 96 48.400391 C 96 48.179491 96.179491 48 96.400391 48 L 103.59961 48 C 103.82061 48 104 48.179491 104 48.400391 L 104 51.599609 C 104 51.820509 104.17939 52 104.40039 52 L 111.59961 52 C 111.82061 52 112 52.179491 112 52.400391 L 112 55.599609 C 112 55.820509 112.17939 56 112.40039 56 L 115.59961 56 C 115.82061 56 116 56.179491 116 56.400391 L 116 67.599609 C 116 67.820509 115.82061 68 115.59961 68 L 112 68 L 112 71.599609 C 112 71.820509 112.17939 72 112.40039 72 L 115.59961 72 C 115.82061 72 116 72.179491 116 72.400391 L 116 79.599609 C 116 79.820509 115.82061 80 115.59961 80 L 112.40039 80 C 112.17939 80 112 79.820509 112 79.599609 L 112 76.400391 C 112 76.179491 111.82061 76 111.59961 76 L 108 76 L 108 83.599609 C 108 83.820509 107.82061 84 107.59961 84 L 104.40039 84 C 104.17939 84 104 83.820509 104 83.599609 L 104 80.400391 C 104 80.179491 103.82061 80 103.59961 80 L 100 80 L 100 99.599609 C 100 99.820509 99.820509 100 99.599609 100 L 92.400391 100 C 92.179491 100 92 100.17939 92 100.40039 L 92 103.59961 C 92 103.82061 91.820509 104 91.599609 104 L 80 104 L 80 107.59961 C 80 107.82061 80.179491 108 80.400391 108 L 83.599609 108 C 83.820509 108 84 108.17939 84 108.40039 L 84 115.59961 C 84 115.82061 83.820509 116 83.599609 116 L 80.400391 116 C 80.179491 116 80 115.82061 80 115.59961 L 80 112.40039 C 80 112.17939 79.820509 112 79.599609 112 L 76 112 L 76 115.59961 C 76 115.82061 75.820509 116 75.599609 116 L 72.400391 116 C 72.179491 116 72 115.82061 72 115.59961 L 72 112.40039 C 72 112.17939 72.179491 112 72.400391 112 L 76 112 L 76 104.40039 C 76 104.17939 76.179491 104 76.400391 104 L 80 104 L 80 100.40039 C 80 100.17939 79.820509 100 79.599609 100 L 68.400391 100 C 68.179491 100 68 99.820509 68 99.599609 L 68 96 L 67.599609 96 L 64 96 L 64 104 L 71.599609 104 C 71.820509 104 72 104.17939 72 104.40039 L 72 107.59961 C 72 107.82061 71.820509 108 71.599609 108 L 64 108 L 64 112 L 67.599609 112 C 67.820509 112 68 112.17939 68 112.40039 L 68 115.59961 C 68 115.82061 67.820509 116 67.599609 116 L 64.400391 116 C 64.179491 116 64 115.82061 64 115.59961 L 64 112 L 63.599609 112 L 60 112 L 60 115.59961 C 60 115.82061 59.820509 116 59.599609 116 L 56.400391 116 C 56.179491 116 56 115.82061 56 115.59961 L 56 112 L 52.400391 112 C 52.179491 112 52 112.17939 52 112.40039 L 52 115.59961 C 52 115.82061 51.820509 116 51.599609 116 L 48.400391 116 C 48.179491 116 48 115.82061 48 115.59961 L 48 108.40039 C 48 108.17939 48.179491 108 48.400391 108 L 51.599609 108 C 51.820509 108 52 107.82061 52 107.59961 L 52 100.40039 C 52 100.17939 52.179491 100 52.400391 100 L 55.599609 100 C 55.820509 100 56 100.17939 56 100.40039 L 56 103.59961 C 56 103.82061 56.179491 104 56.400391 104 L 60 104 L 60 96 L 56.400391 96 C 56.179491 96 56 95.820509 56 95.599609 L 56 88 L 52.400391 88 C 52.179491 88 52 88.179491 52 88.400391 L 52 95.599609 C 52 95.820509 51.820509 96 51.599609 96 L 48.400391 96 C 48.179491 96 48 95.820509 48 95.599609 L 48 84 L 47.599609 84 L 36.400391 84 C 36.179491 84 36 83.820509 36 83.599609 L 36 80.400391 C 36 80.179491 36.179491 80 36.400391 80 L 43.599609 80 C 43.820509 80 44 79.820509 44 79.599609 L 44 76 L 32.400391 76 C 32.179491 76 32 76.179491 32 76.400391 L 32 79.599609 C 32 79.820509 31.820509 80 31.599609 80 L 28.400391 80 C 28.179491 80 28 80.179491 28 80.400391 L 28 83.599609 C 28 83.820509 27.820509 84 27.599609 84 L 24.400391 84 C 24.179491 84 24 83.820509 24 83.599609 L 24 68.400391 C 24 68.179491 24.179491 68 24.400391 68 L 27.599609 68 C 27.820509 68 28 67.820509 28 67.599609 L 28 64 L 20.400391 64 C 20.179491 64 20 63.820509 20 63.599609 L 20 56 L 19.599609 56 L 16.400391 56 C 16.179491 56 16 55.820509 16 55.599609 L 16 48.400391 C 16 48.179491 16.179491 48 16.400391 48 L 23.599609 48 C 23.820509 48 24 48.179491 24 48.400391 L 24 51.599609 C 24 51.820509 23.820509 52 23.599609 52 L 20.400391 52 C 20.179491 52 20 52.179491 20 52.400391 L 20 56 L 27.599609 56 C 27.820509 56 28 55.820509 28 55.599609 L 28 52.400391 C 28 52.179491 28.179491 52 28.400391 52 L 35.599609 52 C 35.820509 52 36 51.820509 36 51.599609 L 36 48.400391 C 36 48.179491 36.179491 48 36.400391 48 L 47.599609 48 C 47.820509 48 48 48.179491 48 48.400391 L 48 52 L 51.599609 52 C 51.820509 52 52 51.820509 52 51.599609 L 52 48.400391 C 52 48.179491 52.179491 48 52.400391 48 L 56 48 L 56 40.400391 C 56 40.179491 56.179491 40 56.400391 40 L 60 40 L 60 36.400391 C 60 36.179491 60.179491 36 60.400391 36 L 68 36 L 68 32.400391 C 68 32.179491 67.820509 32 67.599609 32 L 64.400391 32 C 64.179491 32 64 31.820509 64 31.599609 L 64 24.400391 C 64 24.179491 64.179491 24 64.400391 24 L 68 24 L 68 20.400391 C 68 20.179491 67.820509 20 67.599609 20 L 60 20 L 60 23.599609 C 60 23.820509 59.820509 24 59.599609 24 L 52.400391 24 C 52.179491 24 52 23.820509 52 23.599609 L 52 20.400391 C 52 20.179491 52.179491 20 52.400391 20 L 60 20 L 60 16.400391 C 60 16.179491 60.179491 16 60.400391 16 z M 68 24 L 68 27.599609 C 68 27.820509 68.179491 28 68.400391 28 L 72 28 L 72 24 L 71.599609 24 L 68 24 z M 68 36 L 68 43.599609 C 68 43.820509 67.820509 44 67.599609 44 L 64 44 L 64 47.599609 C 64 47.820509 64.179491 48 64.400391 48 L 71.599609 48 C 71.820509 48 72 47.820509 72 47.599609 L 72 36 L 71.599609 36 L 68 36 z M 64 44 L 64 40.400391 C 64 40.179491 63.820509 40 63.599609 40 L 60 40 L 60 43.599609 C 60 43.820509 60.179491 44 60.400391 44 L 64 44 z M 56 48 L 56 56 L 59.599609 56 C 59.820509 56 60 56.179491 60 56.400391 L 60 60 L 63.599609 60 C 63.820509 60 64 59.820509 64 59.599609 L 64 52.400391 C 64 52.179491 63.820509 52 63.599609 52 L 60.400391 52 C 60.179491 52 60 51.820509 60 51.599609 L 60 48.400391 C 60 48.179491 59.820509 48 59.599609 48 L 56 48 z M 60 60 L 59.599609 60 L 56 60 L 56 71.599609 C 56 71.820509 56.179491 72 56.400391 72 L 60 72 L 60 68.400391 C 60 68.179491 60.179491 68 60.400391 68 L 63.599609 68 C 63.820509 68 64 68.179491 64 68.400391 L 64 71.599609 C 64 71.820509 63.820509 72 63.599609 72 L 60 72 L 60 75.599609 C 60 75.820509 59.820509 76 59.599609 76 L 56.400391 76 C 56.179491 76 56 76.179491 56 76.400391 L 56 88 L 59.599609 88 C 59.820509 88 60 87.820509 60 87.599609 L 60 80.400391 C 60 80.179491 60.179491 80 60.400391 80 L 64 80 L 64 76.400391 C 64 76.179491 64.179491 76 64.400391 76 L 68 76 L 68 72.400391 C 68 72.179491 68.179491 72 68.400391 72 L 75.599609 72 C 75.820509 72 76 71.820509 76 71.599609 L 76 68.400391 C 76 68.179491 76.179491 68 76.400391 68 L 79.599609 68 C 79.820509 68 80 67.820509 80 67.599609 L 80 64.400391 C 80 64.179491 79.820509 64 79.599609 64 L 72.400391 64 C 72.179491 64 72 63.820509 72 63.599609 L 72 56.400391 C 72 56.179491 72.179491 56 72.400391 56 L 75.599609 56 C 75.820509 56 76 55.820509 76 55.599609 L 76 52.400391 C 76 52.179491 75.820509 52 75.599609 52 L 68.400391 52 C 68.179491 52 68 52.179491 68 52.400391 L 68 63.599609 C 68 63.820509 67.820509 64 67.599609 64 L 60.400391 64 C 60.179491 64 60 63.820509 60 63.599609 L 60 60 z M 68 76 L 68 80 L 91.599609 80 C 91.820509 80 92 79.820509 92 79.599609 L 92 76.400391 C 92 76.179491 91.820509 76 91.599609 76 L 88.400391 76 C 88.179491 76 88 75.820509 88 75.599609 L 88 72 L 80.400391 72 C 80.179491 72 80 72.179491 80 72.400391 L 80 75.599609 C 80 75.820509 79.820509 76 79.599609 76 L 68 76 z M 88 72 L 91.599609 72 C 91.820509 72 92 71.820509 92 71.599609 L 92 68.400391 C 92 68.179491 91.820509 68 91.599609 68 L 88 68 L 88 72 z M 88 68 L 88 64 L 84.400391 64 C 84.179491 64 84 64.179491 84 64.400391 L 84 67.599609 C 84 67.820509 84.179491 68 84.400391 68 L 88 68 z M 68 80 L 67.599609 80 L 64 80 L 64 87.599609 C 64 87.820509 64.179491 88 64.400391 88 L 67.599609 88 C 67.820509 88 68 88.179491 68 88.400391 L 68 96 L 71.599609 96 C 71.820509 96 72 95.820509 72 95.599609 L 72 92.400391 C 72 92.179491 72.179491 92 72.400391 92 L 79.599609 92 C 79.820509 92 80 91.820509 80 91.599609 L 80 88.400391 C 80 88.179491 79.820509 88 79.599609 88 L 76.400391 88 C 76.179491 88 76 87.820509 76 87.599609 L 76 84.400391 C 76 84.179491 75.820509 84 75.599609 84 L 68.400391 84 C 68.179491 84 68 83.820509 68 83.599609 L 68 80 z M 56 60 L 56 56 L 55.599609 56 L 48.400391 56 C 48.179491 56 48 55.820509 48 55.599609 L 48 52 L 40.400391 52 C 40.179491 52 40 52.179491 40 52.400391 L 40 55.599609 C 40 55.820509 40.179491 56 40.400391 56 L 43.599609 56 C 43.820509 56 44 56.179491 44 56.400391 L 44 60 L 56 60 z M 44 60 L 40.400391 60 C 40.179491 60 40 60.179491 40 60.400391 L 40 64 L 44 64 L 44 60 z M 44 64 L 44 67.599609 C 44 67.820509 43.820509 68 43.599609 68 L 40 68 L 40 71.599609 C 40 71.820509 40.179491 72 40.400391 72 L 43.599609 72 C 43.820509 72 44 72.179491 44 72.400391 L 44 76 L 48 76 L 48 72.400391 C 48 72.179491 48.179491 72 48.400391 72 L 51.599609 72 C 51.820509 72 52 71.820509 52 71.599609 L 52 68.400391 C 52 68.179491 51.820509 68 51.599609 68 L 48.400391 68 C 48.179491 68 48 67.820509 48 67.599609 L 48 64.400391 C 48 64.179491 47.820509 64 47.599609 64 L 44 64 z M 48 76 L 48 84 L 51.599609 84 C 51.820509 84 52 83.820509 52 83.599609 L 52 76.400391 C 52 76.179491 51.820509 76 51.599609 76 L 48 76 z M 40 68 L 40 64 L 36.400391 64 C 36.179491 64 36 64.179491 36 64.400391 L 36 68 L 40 68 z M 36 68 L 32.400391 68 C 32.179491 68 32 68.179491 32 68.400391 L 32 71.599609 C 32 71.820509 32.179491 72 32.400391 72 L 35.599609 72 C 35.820509 72 36 71.820509 36 71.599609 L 36 68 z M 28 64 L 31.599609 64 C 31.820509 64 32 63.820509 32 63.599609 L 32 60.400391 C 32 60.179491 31.820509 60 31.599609 60 L 28.400391 60 C 28.179491 60 28 60.179491 28 60.400391 L 28 64 z M 60 96 L 64 96 L 64 92.400391 C 64 92.179491 63.820509 92 63.599609 92 L 60.400391 92 C 60.179491 92 60 92.179491 60 92.400391 L 60 96 z M 60 104 L 60 108 L 64 108 L 64 104 L 63.599609 104 L 60 104 z M 60 108 L 56.400391 108 C 56.179491 108 56 108.17939 56 108.40039 L 56 112 L 60 112 L 60 108 z M 100 80 L 100 76.400391 C 100 76.179491 99.820509 76 99.599609 76 L 96.400391 76 C 96.179491 76 96 76.179491 96 76.400391 L 96 79.599609 C 96 79.820509 96.179491 80 96.400391 80 L 100 80 z M 108 76 L 108 68.400391 C 108 68.179491 108.17939 68 108.40039 68 L 112 68 L 112 60.400391 C 112 60.179491 111.82061 60 111.59961 60 L 108.40039 60 C 108.17939 60 108 59.820509 108 59.599609 L 108 56.400391 C 108 56.179491 107.82061 56 107.59961 56 L 104.40039 56 C 104.17939 56 104 56.179491 104 56.400391 L 104 63.599609 C 104 63.820509 103.82061 64 103.59961 64 L 96.400391 64 C 96.179491 64 96 64.179491 96 64.400391 L 96 71.599609 C 96 71.820509 96.179491 72 96.400391 72 L 103.59961 72 C 103.82061 72 104 72.179491 104 72.400391 L 104 75.599609 C 104 75.820509 104.17939 76 104.40039 76 L 108 76 z M 88.400391 16 L 115.59961 16 C 115.82061 16 116 16.179491 116 16.400391 L 116 43.599609 C 116 43.820509 115.82061 44 115.59961 44 L 88.400391 44 C 88.179491 44 88 43.820509 88 43.599609 L 88 16.400391 C 88 16.179491 88.179491 16 88.400391 16 z M 20.400391 20 C 20.179491 20 20 20.179491 20 20.400391 L 20 39.599609 C 20 39.820509 20.179491 40 20.400391 40 L 39.599609 40 C 39.820509 40 40 39.820509 40 39.599609 L 40 20.400391 C 40 20.179491 39.820509 20 39.599609 20 L 20.400391 20 z M 92.400391 20 C 92.179491 20 92 20.179491 92 20.400391 L 92 39.599609 C 92 39.820509 92.179491 40 92.400391 40 L 111.59961 40 C 111.82061 40 112 39.820509 112 39.599609 L 112 20.400391 C 112 20.179491 111.82061 20 111.59961 20 L 92.400391 20 z M 24.400391 24 L 35.599609 24 C 35.820509 24 36 24.179491 36 24.400391 L 36 35.599609 C 36 35.820509 35.820509 36 35.599609 36 L 24.400391 36 C 24.179491 36 24 35.820509 24 35.599609 L 24 24.400391 C 24 24.179491 24.179491 24 24.400391 24 z M 96.400391 24 L 107.59961 24 C 107.82061 24 108 24.179491 108 24.400391 L 108 35.599609 C 108 35.820509 107.82061 36 107.59961 36 L 96.400391 36 C 96.179491 36 96 35.820509 96 35.599609 L 96 24.400391 C 96 24.179491 96.179491 24 96.400391 24 z M 48.400391 28 L 51.599609 28 C 51.820509 28 52 28.179491 52 28.400391 L 52 31.599609 C 52 31.820509 52.179491 32 52.400391 32 L 55.599609 32 C 55.820509 32 56 32.179491 56 32.400391 L 56 35.599609 C 56 35.820509 55.820509 36 55.599609 36 L 48.400391 36 C 48.179491 36 48 35.820509 48 35.599609 L 48 28.400391 C 48 28.179491 48.179491 28 48.400391 28 z M 48.400391 40 L 51.599609 40 C 51.820509 40 52 40.179491 52 40.400391 L 52 43.599609 C 52 43.820509 51.820509 44 51.599609 44 L 48.400391 44 C 48.179491 44 48 43.820509 48 43.599609 L 48 40.400391 C 48 40.179491 48.179491 40 48.400391 40 z M 16.400391 68 L 19.599609 68 C 19.820509 68 20 68.179491 20 68.400391 L 20 83.599609 C 20 83.820509 19.820509 84 19.599609 84 L 16.400391 84 C 16.179491 84 16 83.820509 16 83.599609 L 16 68.400391 C 16 68.179491 16.179491 68 16.400391 68 z M 84.400391 84 C 84.179491 84 84 84.179491 84 84.400391 L 84 95.599609 C 84 95.820509 84.179491 96 84.400391 96 L 95.599609 96 C 95.820509 96 96 95.820509 96 95.599609 L 96 84.400391 C 96 84.179491 95.820509 84 95.599609 84 L 84.400391 84 z M 16.400391 88 L 43.599609 88 C 43.820509 88 44 88.179491 44 88.400391 L 44 115.59961 C 44 115.82061 43.820509 116 43.599609 116 L 16.400391 116 C 16.179491 116 16 115.82061 16 115.59961 L 16 88.400391 C 16 88.179491 16.179491 88 16.400391 88 z M 88.400391 88 L 91.599609 88 C 91.820509 88 92 88.179491 92 88.400391 L 92 91.599609 C 92 91.820509 91.820509 92 91.599609 92 L 88.400391 92 C 88.179491 92 88 91.820509 88 91.599609 L 88 88.400391 C 88 88.179491 88.179491 88 88.400391 88 z M 112.40039 88 L 115.59961 88 C 115.82061 88 116 88.179491 116 88.400391 L 116 91.599609 C 116 91.820509 115.82061 92 115.59961 92 L 112 92 L 112 95.599609 C 112 95.820509 111.82061 96 111.59961 96 L 108 96 L 108 100 L 115.59961 100 C 115.82061 100 116 100.17939 116 100.40039 L 116 115.59961 C 116 115.82061 115.82061 116 115.59961 116 L 112.40039 116 C 112.17939 116 112 115.82061 112 115.59961 L 112 104.40039 C 112 104.17939 111.82061 104 111.59961 104 L 108 104 L 108 107.59961 C 108 107.82061 107.82061 108 107.59961 108 L 100 108 L 100 112 L 103.59961 112 C 103.82061 112 104 112.17939 104 112.40039 L 104 115.59961 C 104 115.82061 103.82061 116 103.59961 116 L 100.40039 116 C 100.17939 116 100 115.82061 100 115.59961 L 100 112 L 92.400391 112 C 92.179491 112 92 112.17939 92 112.40039 L 92 115.59961 C 92 115.82061 91.820509 116 91.599609 116 L 88.400391 116 C 88.179491 116 88 115.82061 88 115.59961 L 88 108.40039 C 88 108.17939 88.179491 108 88.400391 108 L 100 108 L 100 104.40039 C 100 104.17939 100.17939 104 100.40039 104 L 108 104 L 108 100 L 107.59961 100 L 104.40039 100 C 104.17939 100 104 99.820509 104 99.599609 L 104 96.400391 C 104 96.179491 104.17939 96 104.40039 96 L 108 96 L 108 92.400391 C 108 92.179491 108.17939 92 108.40039 92 L 112 92 L 112 88.400391 C 112 88.179491 112.17939 88 112.40039 88 z M 20.400391 92 C 20.179491 92 20 92.179491 20 92.400391 L 20 111.59961 C 20 111.82061 20.179491 112 20.400391 112 L 39.599609 112 C 39.820509 112 40 111.82061 40 111.59961 L 40 92.400391 C 40 92.179491 39.820509 92 39.599609 92 L 20.400391 92 z M 24.400391 96 L 35.599609 96 C 35.820509 96 36 96.179491 36 96.400391 L 36 107.59961 C 36 107.82061 35.820509 108 35.599609 108 L 24.400391 108 C 24.179491 108 24 107.82061 24 107.59961 L 24 96.400391 C 24 96.179491 24.179491 96 24.400391 96 z " />
      <g
         style="fill:#000000;stroke:none"
         id="g4" />
    </g>
  </g>
</svg>
