<?xml version="1.0" encoding="UTF-8" standalone="no"?>
<svg
   id="svg1"
   viewBox="0 0 103.81 25.74"
   version="1.1"
   sodipodi:docname="logo.svg"
   inkscape:version="1.3.2 (091e20e, 2023-11-25)"
   xmlns:inkscape="http://www.inkscape.org/namespaces/inkscape"
   xmlns:sodipodi="http://sodipodi.sourceforge.net/DTD/sodipodi-0.dtd"
   xmlns="http://www.w3.org/2000/svg"
   xmlns:svg="http://www.w3.org/2000/svg">
  <defs
     id="defs8" />
  <sodipodi:namedview
     id="namedview8"
     pagecolor="#505050"
     bordercolor="#ffffff"
     borderopacity="1"
     inkscape:showpageshadow="0"
     inkscape:pageopacity="0"
     inkscape:pagecheckerboard="1"
     inkscape:deskcolor="#505050"
     inkscape:zoom="4.5034198"
     inkscape:cx="42.745293"
     inkscape:cy="10.769593"
     inkscape:window-width="1920"
     inkscape:window-height="1006"
     inkscape:window-x="1080"
     inkscape:window-y="290"
     inkscape:window-maximized="1"
     inkscape:current-layer="svg1" />
  <path
     d="M2.59,8.67c.43-.74.95-1.25,1.55-1.51.6-.26,1.38-.4,2.34-.4h.4c.19,0,.29.1.29.29v1.98c0,.22-.1.32-.29.32h-.86c-1.27,0-2.15.32-2.62.97-.48.65-.72,1.67-.72,3.06v6.29c0,.22-.08.32-.25.32H.29c-.19,0-.29-.11-.29-.32V7.05c0-.19.1-.29.29-.29h.18c.6,0,1.08.16,1.46.49.37.32.59.8.67,1.42Z"
     id="path1"
     style="fill:#ffffff" />
  <path
     d="M19.61,18.12c-.53.74-1.16,1.29-1.91,1.65-.74.36-1.57.54-2.48.54-1.32,0-2.44-.31-3.36-.93-.92-.62-1.62-1.46-2.1-2.52-.48-1.05-.72-2.22-.72-3.49,0-1.34.26-2.54.79-3.58s1.26-1.86,2.21-2.46c.95-.6,2.04-.9,3.29-.9,1.01,0,1.89.19,2.64.58.76.38,1.35.89,1.78,1.51.12-.62.36-1.07.72-1.35.36-.28.81-.41,1.37-.41h.18c.17,0,.25.11.25.32v12.58c0,.22-.08.32-.25.32h-2.12c-.19,0-.29-.11-.29-.32v-1.55ZM15.62,17.8c.6,0,1.2-.13,1.82-.38.61-.25,1.13-.7,1.55-1.35.42-.65.63-1.55.63-2.7s-.21-2.08-.63-2.71c-.42-.63-.93-1.07-1.53-1.31-.6-.24-1.17-.36-1.73-.36-1.03,0-1.94.36-2.73,1.08-.79.72-1.19,1.82-1.19,3.31,0,1.08.2,1.94.59,2.59.4.65.89,1.11,1.47,1.4.59.29,1.17.43,1.74.43Z"
     id="path2"
     style="fill:#ffffff" />
  <path
     d="M28.64,18.23v7.19c0,.22-.08.32-.25.32h-2.12c-.19,0-.29-.11-.29-.32V7.05c0-.19.1-.29.29-.29h.18c.65,0,1.14.19,1.47.56.34.37.55.81.65,1.31.41-.62.98-1.14,1.73-1.56.74-.42,1.63-.63,2.66-.63,1.99,0,3.54.65,4.64,1.96,1.1,1.31,1.65,2.97,1.65,4.98,0,1.27-.24,2.43-.72,3.49-.48,1.05-1.17,1.89-2.09,2.52-.91.62-2.01.93-3.31.93-.94,0-1.8-.17-2.59-.5-.79-.34-1.43-.86-1.91-1.58ZM32.64,17.8c.58,0,1.16-.14,1.76-.43.6-.29,1.1-.75,1.49-1.4.4-.65.59-1.51.59-2.59,0-1.49-.39-2.59-1.17-3.31-.78-.72-1.7-1.08-2.75-1.08-.55,0-1.13.12-1.74.36s-1.13.68-1.55,1.31c-.42.64-.63,1.54-.63,2.71s.22,2.05.65,2.7c.43.65.96,1.1,1.58,1.35.62.25,1.21.38,1.76.38Z"
     id="path3"
     style="fill:#ffffff" />
  <path
     d="M43.64,9.13h-2.44c-.19,0-.29-.1-.29-.29v-1.8c0-.19.1-.29.29-.29h2.44V2.3c0-.22.08-.32.25-.32h.18c.69,0,1.24.21,1.64.63.4.42.59,1.05.59,1.89v2.27h2.77c.17,0,.25.1.25.29v1.8c0,.19-.08.29-.25.29h-2.77v10.53c0,.22-.1.32-.29.32h-2.12c-.17,0-.25-.11-.25-.32v-10.53Z"
     id="path4"
     style="fill:#ffffff" />
  <path
     d="M60.98,9.85c-.53-.29-1.02-.5-1.49-.65-.47-.14-1.04-.22-1.71-.22-1.13,0-2.06.38-2.79,1.15-.73.77-1.1,1.87-1.1,3.31s.36,2.49,1.08,3.29c.72.8,1.75,1.2,3.09,1.2.79,0,1.46-.14,2-.43.54-.29.96-.59,1.28-.9.05-.05.11-.1.2-.16s.16-.09.23-.09c.24,0,.36.18.36.54,0,.48-.17.99-.52,1.53-.35.54-.86,1-1.55,1.37-.68.37-1.54.56-2.57.56-1.89,0-3.43-.62-4.6-1.85-1.17-1.23-1.76-2.93-1.76-5.09,0-1.41.28-2.64.83-3.69.55-1.04,1.32-1.85,2.3-2.43.98-.58,2.12-.86,3.42-.86.62,0,1.17.04,1.64.13.47.08.93.22,1.38.41.93.38,1.27,1.04,1.01,1.98l-.18.72c-.05.19-.13.29-.25.29-.07,0-.17-.04-.29-.11Z"
     id="path5"
     style="fill:#ffffff" />
  <path
     d="M67.33,8.38c.36-.55.89-1.01,1.58-1.38.69-.37,1.53-.56,2.52-.56,1.63,0,2.94.52,3.92,1.55.98,1.03,1.47,2.43,1.47,4.21v7.48c0,.22-.1.32-.29.32h-2.12c-.19,0-.29-.11-.29-.32v-7.01c0-1.25-.3-2.18-.9-2.8-.6-.62-1.4-.93-2.41-.93-1.08,0-1.93.32-2.55.95-.62.64-.93,1.62-.93,2.97v6.83c0,.22-.08.32-.25.32h-2.12c-.19,0-.29-.11-.29-.32V.32c0-.22.1-.32.29-.32h.18c1.46,0,2.19.83,2.19,2.48v5.9Z"
     id="path6"
     style="fill:#ffffff" />
  <path
     d="M90.34,18.12c-.53.74-1.16,1.29-1.91,1.65s-1.57.54-2.48.54c-1.32,0-2.44-.31-3.36-.93s-1.62-1.46-2.1-2.52c-.48-1.05-.72-2.22-.72-3.49,0-1.34.26-2.54.79-3.58s1.26-1.86,2.21-2.46c.95-.6,2.04-.9,3.29-.9,1.01,0,1.89.19,2.64.58.75.38,1.35.89,1.78,1.51.12-.62.36-1.07.72-1.35.36-.28.81-.41,1.37-.41h.18c.17,0,.25.11.25.32v12.58c0,.22-.08.32-.25.32h-2.12c-.19,0-.29-.11-.29-.32v-1.55ZM86.35,17.8c.6,0,1.2-.13,1.82-.38.61-.25,1.13-.7,1.55-1.35.42-.65.63-1.55.63-2.7s-.21-2.08-.63-2.71c-.42-.63-.93-1.07-1.53-1.31-.6-.24-1.17-.36-1.73-.36-1.03,0-1.94.36-2.73,1.08-.79.72-1.19,1.82-1.19,3.31,0,1.08.2,1.94.59,2.59.4.65.89,1.11,1.47,1.4.59.29,1.17.43,1.74.43Z"
     id="path7"
     style="fill:#ffffff" />
  <path
     d="M98.13,9.13h-2.44c-.19,0-.29-.1-.29-.29v-1.8c0-.19.1-.29.29-.29h2.44V2.3c0-.22.08-.32.25-.32h.18c.7,0,1.24.21,1.64.63.4.42.59,1.05.59,1.89v2.27h2.77c.17,0,.25.1.25.29v1.8c0,.19-.08.29-.25.29h-2.77v10.53c0,.22-.1.32-.29.32h-2.12c-.17,0-.25-.11-.25-.32v-10.53Z"
     id="path8"
     style="fill:#ffffff" />
</svg>
